<svg width="33" height="33" viewBox="0 0 33 33" fill="none" xmlns="http://www.w3.org/2000/svg">
<g id="heart">
<path id="Vector" d="M28.6549 6.33882C27.9526 5.6362 27.1188 5.07883 26.201 4.69856C25.2833 4.31829 24.2996 4.12256 23.3062 4.12256C22.3128 4.12256 21.3291 4.31829 20.4113 4.69856C19.4935 5.07883 18.6597 5.6362 17.9574 6.33882L16.4999 7.79632L15.0424 6.33882C13.6238 4.92024 11.6998 4.12329 9.69367 4.12329C7.6875 4.12329 5.7635 4.92024 4.34492 6.33882C2.92634 7.7574 2.12939 9.6814 2.12939 11.6876C2.12939 13.6937 2.92634 15.6177 4.34492 17.0363L5.80242 18.4938L16.4999 29.1913L27.1974 18.4938L28.6549 17.0363C29.3575 16.334 29.9149 15.5002 30.2952 14.5824C30.6754 13.6647 30.8712 12.681 30.8712 11.6876C30.8712 10.6941 30.6754 9.71046 30.2952 8.79271C29.9149 7.87495 29.3575 7.04111 28.6549 6.33882V6.33882Z" stroke="white" stroke-width="2" stroke-linecap="round" stroke-linejoin="round"/>
</g>
</svg>
